HIERARCHY
ROOT Hips
{
  OFFSET -397.147 97.7039 -36.6893
  CHANNELS 6 Xposition Yposition Zposition Zrotation Xrotation Yrotation
  JOINT RightUpLeg
  {
    OFFSET -8.9458 -8.66707 0.101652
    CHANNELS 3 Zrotation Xrotation Yrotation
    JOINT RightLeg
    {
      OFFSET 0 -44.4227 1.3727
      CHANNELS 3 Zrotation Xrotation Yrotation
      JOINT RightFoot
      {
        OFFSET 0.253549 -42.0924 -1.46059
        CHANNELS 3 Zrotation Xrotation Yrotation
        JOINT RightToes
        {
          OFFSET 0.04 -4.41509 8.4991
          CHANNELS 3 Zrotation Xrotation Yrotation
          End Site
          {
            OFFSET -0.08 -0.137448 9.77979
          }
        }
      }
    }
  }
  JOINT Spine
  {
    OFFSET 0 11.8905 0
    CHANNELS 3 Zrotation Xrotation Yrotation
    JOINT Spine1
    {
      OFFSET 0 25.6574 0.127663
      CHANNELS 3 Zrotation Xrotation Yrotation
      JOINT HEad
      {
        OFFSET 0 8.73416 0.011341
        CHANNELS 3 Zrotation Xrotation Yrotation
        End Site
        {
          OFFSET -0.29 12.7742 2.51395
        }
      }
      JOINT LeftShoulder1
      {
        OFFSET 8.99 -0.362252 -0.22
        CHANNELS 3 Zrotation Xrotation Yrotation
        JOINT LeftArm
        {
          OFFSET 10.2827 -0.00338 0.322123
          CHANNELS 3 Zrotation Xrotation Yrotation
          JOINT LeftForeArm
          {
            OFFSET 32.7669 0.099144 -1.42434
            CHANNELS 3 Zrotation Xrotation Yrotation
            JOINT LeftHand
            {
              OFFSET 27.5643 0.085362 1.02216
              CHANNELS 3 Zrotation Xrotation Yrotation
              End Site
              {
                OFFSET 16.7443 -0.6 1.50291
              }
            }
          }
        }
      }
      JOINT RightShoulder
      {
        OFFSET -8.99 -0.362252 -0.22
        CHANNELS 3 Zrotation Xrotation Yrotation
        JOINT RightArm
        {
          OFFSET -10.2827 -0.00338 0.322123
          CHANNELS 3 Zrotation Xrotation Yrotation
          JOINT RightForeArm
          {
            OFFSET -32.8971 0.099144 -1.42434
            CHANNELS 3 Zrotation Xrotation Yrotation
            JOINT RightHand
            {
              OFFSET -27.4921 0.085362 1.02216
              CHANNELS 3 Zrotation Xrotation Yrotation
              End Site
              {
                OFFSET -16.6312 -0.6 1.50291
              }
            }
          }
        }
      }
    }
  }
  JOINT LeftUpLeg
  {
    OFFSET 8.9458 -8.66707 0.101652
    CHANNELS 3 Zrotation Xrotation Yrotation
    JOINT LeftLeg
    {
      OFFSET 0 -44.4227 1.3727
      CHANNELS 3 Zrotation Xrotation Yrotation
      JOINT LeftFoot
      {
        OFFSET -0.253549 -42.0924 -1.46059
        CHANNELS 3 Zrotation Xrotation Yrotation
        JOINT LeftToes
        {
          OFFSET -0.04 -4.41509 8.4991
          CHANNELS 3 Zrotation Xrotation Yrotation
          End Site
          {
            OFFSET 0.08 -0.047448 9.77979
          }
        }
      }
    }
  }
}
MOTION
Frames:	21
Frame Time:	0.0166667
-402.057 91.2791 -35.633 13.9222 -7.8741 65.2009 -26.3884 -6.81257 18.6924 48.1896 36.5107 -57.4068 -25.0877 0.825325 -1.22363 0.0462048 0.000533403 0.662642 -0.584972 24.8308 -1.74601 0.00846 -7.45294e-009 -2.05084e-007 1.88331 3.73911 13.9371 -7.95139e-016 5.96354e-016 3.18055e-015 -124.285 -58.0937 -102.899 -57.976 56.4366 -50.7841 18.7831 12.452 -19.7059 23.8605 6.92026 -1.45691 102.226 -9.26079 72.2591 28.1988 58.7425 92.6764 13.1231 18.6029 -3.1973 24.6272 -9.40091 -2.9957 -46.2431 16.088 73.0478 35.9427 -0.264324 1.31436 -1.18447e-009 1.5602e-007 -4.87131e-009 
-401.528 92.2144 -35.8367 13.949 -7.70054 64.9678 -26.6008 -5.3607 18.7297 48.6989 36.6671 -55.7559 -23.0308 0.691486 -1.16801 0.0462048 0.000533403 0.662642 -1.47789 25.076 -1.28968 0.01183 -7.45294e-009 0.00168971 1.97907 4.10429 12.8473 -3.97569e-016 2.98177e-015 -3.18055e-015 -127.821 -55.7581 -106.61 -65.3161 56.9591 -44.2946 16.1934 7.81753 -24.0625 30.1766 6.79166 0.917337 95.616 -15.7017 70.682 27.4573 62.6596 99.0876 3.33414 15.4983 -10.0225 22.5779 -9.61836 -4.44167 -44.1854 16.2265 72.3441 36.8837 -0.215047 1.34571 -1.18446e-009 1.5602e-007 -4.87132e-009 
-400.997 93.0649 -35.972 13.9943 -7.5141 64.7888 -26.8017 -3.60542 18.8252 49.8476 36.9776 -53.4678 -21.2431 0.647232 -1.14194 0.0462048 0.000533403 0.662642 -2.00719 25.2471 -0.548996 0.0277499 0.00625997 0.0304793 1.89679 4.62863 10.7813 -7.95139e-016 -7.95139e-016 3.18055e-015 -132.343 -52.5158 -111.177 -76.3526 56.4431 -34.8839 14.0744 3.9294 -30.0823 35.7596 7.96869 5.68337 88.9582 -26.0431 68.8013 22.7903 67.1737 111.655 -7.60243 11.9171 -20.2555 20.2399 -9.8274 -5.99699 -41.6005 16.5629 71.0268 37.6359 -0.241751 1.38557 -1.18447e-009 1.5602e-007 -4.87132e-009 
-400.43 93.9423 -36.0313 14.0677 -7.32069 64.7986 -26.9105 -0.87904 19.0987 52.4994 37.2943 -49.12 -20.8561 0.863249 -1.18821 0.0462048 0.000533403 0.662642 -1.49893 25.1319 1.26126 0.0644595 0.0184699 0.108598 1.48867 5.6764 5.49351 -3.97569e-016 1.98785e-016 -0 -140.121 -48.4539 -119.178 -95.6449 51.9024 -22.0908 21.1356 14.917 -21.2687 34.1135 12.1719 16.9397 87.3889 -44.961 66.6201 1.61129 69.5185 145.305 -19.212 3.12207 -38.7931 16.7612 -10.1252 -7.82824 -37.399 17.1208 67.7037 38.267 -0.42991 1.47059 -1.18447e-009 1.5602e-007 -4.87131e-009 
-399.776 94.8688 -36.0567 14.1851 -7.12907 64.9926 -27.191 2.5642 19.6678 54.4683 37.3877 -45.1222 -19.9224 0.937687 -1.22991 0.0462048 0.000533403 0.662642 -0.188319 24.8513 3.99236 0.0535396 0.03037 0.106699 1.07275 7.09854 -2.45764 -3.97569e-016 -9.93923e-016 6.36111e-015 -143.802 -44.6442 -121.096 -105.288 47.6879 -16.1276 21.5841 14.2041 -22.9681 33.2111 10.8346 15.7078 76.9192 -50.6127 52.8912 -1.79046 65.3838 154.55 -25.5178 -4.56471 -44.3232 12.2754 -10.2269 -9.88228 -31.684 17.9077 62.5596 38.772 -0.706567 1.5944 -1.18446e-009 1.5602e-007 -4.87131e-009 
-399.066 95.6797 -36.1004 14.3412 -6.94187 65.3348 -27.527 5.37218 20.089 56.4326 37.9379 -42.6144 -19.8333 1.16283 -1.3128 0.0462048 0.000533403 0.662642 1.77728 24.4744 7.46909 0.0463396 0.0349 0.0944589 0.481371 8.5814 -11.2546 7.95139e-016 1.59028e-015 3.18055e-015 -145.405 -41.7367 -119.582 -110.253 44.7031 -13.4625 24.7363 19.4121 -19.8803 32.1073 9.30848 13.5204 70.9029 -52.3078 47.3829 22.9403 60.8545 125.092 -21.979 -19.0487 -40.26 7.07223 -10.0015 -12.0472 -24.8177 18.8395 55.8817 39.2567 -1.05461 1.74183 -1.18446e-009 1.5602e-007 -4.87132e-009 
-398.36 96.4725 -36.2108 14.5242 -6.78464 65.7763 -27.9336 7.69495 20.4549 56.7322 37.2415 -40.4471 -20.481 1.03672 -1.37582 0.0462048 0.000533403 0.662642 4.29191 24.1809 11.4193 0.0460197 0.03754 0.0758589 -0.249147 10.0277 -20.4796 7.95139e-016 3.97569e-016 1.59028e-015 -145.933 -39.676 -116.05 -112.89 42.9135 -12.6622 24.6822 17.7696 -22.0032 30.5263 7.65366 9.9219 71.7303 -48.7474 51.1052 40.7008 48.3565 96.329 -5.94201 -20.7483 -14.8985 2.43735 -9.05023 -14.0677 -18.0828 18.9766 47.8109 40.09 -1.27582 1.84697 -1.18446e-009 1.5602e-007 -4.87131e-009 
-397.714 97.1594 -36.4156 14.722 -6.68074 66.269 -28.4865 9.53586 20.8399 56.3087 35.9109 -38.8011 -20.5845 0.878741 -1.35062 0.0462048 0.000533403 0.662642 6.55242 23.6059 14.6459 -0.0119098 0.01357 -0.0329097 -0.578511 11.713 -28.4093 3.31043e-032 -5.96354e-016 3.18055e-015 -145.725 -39.1665 -112.379 -114.157 42.031 -12.8769 26.0475 19.8176 -20.7883 28.6681 6.95287 6.47166 77.3832 -42.828 60.3264 48.059 31.5976 75.4128 10.6907 -19.2098 -0.630819 -1.46483 -7.36229 -15.8677 -12.1884 17.6931 39.2245 41.9021 -1.30217 1.86297 -1.18447e-009 1.5602e-007 -4.87131e-009 
-397.147 97.7039 -36.6893 14.9335 -6.64728 66.7695 -29.115 10.9822 21.2384 55.6922 34.3849 -37.7108 -20.7144 0.63061 -1.31036 0.0462048 0.000533403 0.662642 8.52029 22.7823 17.1123 -0.0128198 0.00695001 -0.0428897 -0.650472 13.5012 -35.1132 -0 -9.93923e-017 -0 -144.922 -39.627 -108.683 -114.598 41.7461 -13.6272 25.5815 18.0639 -22.3741 18.2355 10.0006 12.3834 95.4681 -43.1192 75.9624 49.3811 15.0856 60.245 21.8754 -3.98537 14.684 -4.44514 -5.29511 -17.3892 -7.38703 16.5284 32.3258 43.6165 -1.22304 1.81111 -1.18447e-009 1.5602e-007 -4.87131e-009 
-396.674 98.1305 -37.0093 15.1593 -6.68777 67.2453 -29.8075 12.0915 21.6667 55.135 32.9429 -37.0784 -20.565 0.338509 -1.25405 0.0462048 0.000533403 0.662642 10.1372 21.8274 18.8976 -0.0106798 0.00910344 -0.0353706 -0.48576 15.2365 -40.5343 1.59028e-015 2.98177e-016 -1.98785e-016 -143.709 -40.6445 -105.205 -114.51 41.8279 -14.4852 25.8824 18.6484 -21.8028 16.5599 10.6974 9.17056 100.943 -32.9688 86.1777 47.5243 0.542063 47.6125 33.6604 2.30565 17.4299 -6.80192 -3.20737 -18.6296 -3.3656 15.478 26.933 45.3662 -0.97881 1.63032 -1.18447e-009 1.5602e-007 -4.87132e-009 
-396.278 98.4526 -37.331 15.4 -6.79434 67.6828 -30.5134 12.9444 22.1087 54.7366 31.7248 -36.772 -20.3421 0.0428698 -1.18674 0.0462048 0.000533403 0.662642 11.3847 20.8138 20.0649 -0.00300984 0.01428 -0.0307399 -0.165833 16.8489 -44.7165 1.59028e-015 -3.72721e-017 9.93923e-017 -142.293 -41.9243 -102.089 -114.079 42.1088 -15.2494 25.1022 17.2347 -22.7984 3.8063 12.7984 13.8855 117.478 -25.3438 100.162 43.9203 -11.196 36.2562 39.1076 17.7422 20.1535 -8.65392 -1.28345 -19.621 -0.122983 14.4638 22.8733 47.2719 -0.640517 1.36463 -1.18446e-009 1.5602e-007 -4.87132e-009 
-395.919 98.6627 -37.6397 15.6481 -6.94177 68.085 -31.2318 13.5933 22.561 54.5585 30.786 -36.6904 -20.0558 -0.250241 -1.10441 0.0462048 0.000533403 0.662642 12.2253 19.8065 20.7047 0.00216945 0.0197525 -0.0205301 0.282457 18.2418 -47.7888 1.37935e-033 1.98785e-016 -3.97569e-016 -140.812 -43.2348 -99.3802 -113.431 42.5396 -15.7792 24.7514 17.3311 -22.3553 3.60911 14.1638 12.0424 117.935 -15.6898 105.267 46.8575 -16.1512 30.0797 50.0219 14.7147 15.0503 -9.89137 0.552377 -20.4566 1.17382 12.1739 21.7982 50.7782 -0.0498333 0.965796 -1.18447e-009 1.5602e-007 -4.87131e-009 
-395.55 98.723 -37.8714 15.8938 -7.09504 68.4614 -31.7913 13.9928 22.8986 55.6737 31.4946 -37.6383 -20.3858 -0.17985 -1.05739 0.0462048 0.000533403 0.662642 12.6531 18.8462 20.8752 0.00890009 0.02577 -0.0126902 0.801476 19.3845 -49.8584 -3.18055e-015 -4.96962e-016 -0 -139.364 -44.4881 -97.0871 -112.674 43.1081 -16.0814 23.8247 16.34 -22.7658 3.79549 15.4626 11.0522 116.992 -6.39202 110.509 50.4638 -21.8353 25.6022 43.021 28.3586 -0.0632459 -10.5104 2.16847 -21.1766 1.1666 9.27729 23.0967 55.1523 0.621998 0.537967 -1.18447e-009 1.5602e-007 -4.87132e-009 
-395.152 98.7087 -38.0366 16.1216 -7.22742 68.8094 -32.3983 14.2355 23.2785 56.3827 31.6893 -38.2807 -19.8645 -0.444563 -0.995806 0.0462048 0.000533403 0.662642 12.6725 17.9669 20.633 0.00977006 0.0298 -0.00554025 1.35755 20.2549 -51.0319 1.59028e-015 -1.14301e-015 3.97569e-016 -137.973 -45.6266 -95.1667 -111.872 43.8148 -16.1676 23.2556 16.2005 -22.2446 4.12634 16.5338 10.8396 116.103 -1.12015 113.431 53.1707 -25.6358 24.3988 47.2307 24.8558 -4.382 -10.3602 3.91624 -21.8472 0.182288 5.09114 26.1241 60.3303 1.65043 -0.225944 -1.18447e-009 1.5602e-007 -4.87131e-009 
-394.748 98.6451 -38.0993 16.3289 -7.32827 69.1087 -32.8975 14.3791 23.5928 56.8355 31.643 -38.7364 -19.9051 -0.611397 -0.944903 0.0462048 0.000533403 0.662642 11.6989 18.2622 19.8037 -0.00609968 0.12636 -0.0335899 1.92974 19.5783 -50.881 -3.10353e-033 4.47266e-016 3.97569e-016 -137.704 -46.0564 -95.2929 -111.163 44.6524 -16.0844 22.5041 15.4082 -22.2351 4.81411 16.1509 11.4862 115.442 1.5795 114.481 55.0927 -27.7003 24.5803 44.6346 32.3587 -11.0963 -10.4052 3.79631 -22.2793 -0.57204 5.09172 29.1134 63.757 1.40392 0.0861958 -1.18446e-009 1.5602e-007 -4.87131e-009 
-394.383 98.5522 -38.0505 16.5218 -7.40331 69.3252 -33.3427 14.4232 23.8967 57.1813 31.491 -39.1729 -19.7409 -0.783098 -0.887771 0.0462048 0.000533403 0.662642 9.99496 19.5933 18.3013 -0.000539648 0.11785 -0.04405 2.37942 17.8313 -49.447 0 1.61513e-016 -0 -138.426 -46.1757 -97.0472 -110.616 45.5928 -15.8651 22.0945 15.1243 -21.6642 5.91128 14.8413 12.5494 114.932 2.6913 113.941 51.0787 -28.7538 23.563 47.4576 28.4323 -7.51743 -10.1407 3.69144 -22.5725 -1.33016 5.09411 31.6358 66.6759 1.30863 0.251067 -1.18446e-009 1.5602e-007 -4.87132e-009 
-394.109 98.4642 -37.896 16.7042 -7.47352 69.4177 -33.6842 14.3695 24.1804 57.5067 31.306 -39.7359 -19.6748 -0.94261 -0.835247 0.0462048 0.000533403 0.662642 7.87156 21.7608 16.0779 -0.000540397 0.09859 -0.0522201 2.67973 15.266 -46.7511 3.18055e-015 -4.96962e-017 -3.97569e-016 -136.844 -45.7097 -94.5643 -108.172 50.4234 -17.393 21.5018 14.5865 -21.2805 7.02923 12.8036 14.0532 116.084 -0.290071 110.361 48.2944 -27.0122 23.5031 35.5693 36.5997 -11.2809 -9.69784 3.57097 -22.7222 -2.17661 5.09281 33.724 69.2782 1.34013 0.305075 -1.18447e-009 1.5602e-007 -4.87131e-009 
-393.967 98.4214 -37.6628 16.8696 -7.56901 69.3463 -33.9066 14.1986 24.4542 57.8609 31.1081 -40.5243 -19.5242 -1.08393 -0.780148 0.0462048 0.000533403 0.662642 5.67224 24.5686 13.0853 -0.000548942 0.08028 -0.0580317 2.80182 12.1764 -42.8714 -7.95139e-016 2.98177e-016 1.59028e-015 -137.461 -45.7659 -96.0337 -106.126 53.2106 -19.0678 21.0182 14.4697 -20.4962 8.15109 10.3829 16.0944 117.909 -5.45027 105.329 46.3758 -23.5026 24.4643 44.0928 25.3903 -0.55406 -9.14204 3.41488 -22.7251 -3.10021 5.06972 35.4097 71.6335 1.48113 0.252542 -1.18445e-009 1.5602e-007 -4.87131e-009 
-393.964 98.4227 -37.3924 17.0757 -7.6889 69.2227 -34.1067 13.9341 24.7776 58.5264 31.2053 -41.9966 -18.3757 -1.11537 -0.69303 0.0462048 0.000533403 0.662642 3.63089 27.2493 10.1618 -0.000630254 -0.00124001 -6.11124e-005 3.1721 9.41748 -39.0838 -1.59028e-015 -1.19271e-015 -0 -137.991 -46.1224 -97.6006 -104.113 55.5423 -20.9433 20.4921 14.3644 -19.7102 11.302 8.59343 14.7637 117.23 -8.3764 98.7482 44.3162 -19.7437 25.8775 46.9427 21.3598 5.61049 -8.52977 3.32983 -22.6794 -3.97412 5.0113 36.9622 73.7189 1.68482 0.122848 -1.18447e-009 1.5602e-007 -4.87131e-009 
-394.078 98.4754 -37.1253 17.2787 -7.86018 69.026 -34.302 13.5858 25.1461 59.4507 30.9942 -44.5395 -16.83 -1.09372 -0.585085 0.0462048 0.000533403 0.662642 1.81299 30.0305 7.00289 -0.000625313 0.01744 -0.0162307 3.5758 6.59785 -34.9192 -0 -2.5842e-015 -0 -139.221 -46.7919 -100.031 -102.412 57.5687 -22.8131 19.9004 14.2553 -18.9016 15.6781 7.0161 12.1715 114.522 -10.1045 91.5792 41.9635 -15.9108 27.6277 46.5397 20.3159 9.28833 -7.87357 3.26459 -22.586 -4.7753 4.89808 38.3773 75.5478 1.93449 -0.0725268 -1.18447e-009 1.5602e-007 -4.87131e-009 
-394.255 98.5762 -36.8919 17.1598 -8.26426 68.1775 -34.3073 12.7904 25.5406 60.4774 30.6924 -47.7782 -15.2896 -1.02083 -0.480569 0.0462048 0.000533403 0.662642 0.229538 32.6477 4.18641 -0.00062515 0.01716 -0.0170396 4.03126 3.8666 -30.4721 1.21382e-031 -2.18663e-015 3.18055e-015 -141.08 -47.8085 -103.188 -103.238 58.1966 -22.7156 17.0168 10.7038 -15.4101 20.8298 5.72014 8.89778 110.306 -10.9957 84.5293 39.3755 -11.987 29.7444 44.5037 20.4402 11.6278 -6.94838 2.94835 -21.9536 -5.49731 4.71959 39.6611 77.1027 2.21584 -0.315817 -1.18446e-009 1.5602e-007 -4.87131e-009 
